<svg width="24" height="32" fill="none" xmlns="http://www.w3.org/2000/svg"><path d="M23.661 3.481c-.317-.421-.78-.433-1.307-.447l-.182-.005c-.046-.002-.098-.001-.152 0-.214.002-.464.006-.59-.15-.146-.181-.132-.531-.12-.82.003-.091.006-.176.004-.248-.02-.671-.063-1.384-.361-1.622-.225-.179-.898-.154-1.518-.131-.201.007-.397.015-.57.015H5.663c-.266 0-.545-.02-.818-.038C4.31 0 3.796-.035 3.43.073c-.53.157-.566.985-.6 1.764l-.002.042c-.028.644-.212 1.14-.82 1.09C1.3 2.912.594 2.894.275 3.45c-.378.659-.3 1.348-.16 2.582l.062.564h23.687l.043-.433c.11-1.11.207-2.078-.247-2.682z" fill="#8047F8"/><path fill-rule="evenodd" clip-rule="evenodd" d="M2.022 7.82c.37 4.349.736 8.703 1.102 13.057v.002l.597 7.092h.756c.051.37.11.827.172 1.308.127.978.266 2.057.383 2.721h.084c.77-.245 6.092-2.22 6.094-10.087 0-.023 0-.045.003-.067H9.898a.322.322 0 01-.176-.053.25.25 0 01-.102-.133 5.198 5.198 0 01-.31-.846c-.773.379-1.387.959-1.755 1.655a2.868 2.868 0 01-.129-2.25c.266-.739.826-1.375 1.582-1.796.01-2.296.999-4.508 2.781-6.22l.028-.02a.316.316 0 01.398.02c1.803 1.714 2.787 3.948 2.757 6.257.77.41 1.341 1.045 1.607 1.789a2.795 2.795 0 01-.16 2.255c-.366-.698-.981-1.278-1.756-1.656-.047.28-.135.553-.26.815-.043.111-.13.183-.216.183h-1.402a.387.387 0 01.004.04l.001.003v.041c.02 8.093 5.678 9.93 6.155 10.07h.163c.042-.637.177-1.517.31-2.374.09-.591.18-1.172.236-1.655h.765c.244-2.977.496-5.945.748-8.914v-.002c.322-3.798.644-7.595.951-11.41H2.071c-.057.01-.053.092-.049.175zm9.982 4.301h-.002.003-.001z" fill="#8047F8"/></svg>